<?xml version="1.0" encoding="UTF-8" standalone="no"?>
<!DOCTYPE svg PUBLIC "-//W3C//DTD SVG 1.1//EN" "http://www.w3.org/Graphics/SVG/1.1/DTD/svg11.dtd">
<!-- Generated by Microsoft Visio, SVG Export net.svg Page-1 -->
<svg xmlns="http://www.w3.org/2000/svg" xmlns:xlink="http://www.w3.org/1999/xlink" xmlns:ev="http://www.w3.org/2001/xml-events"
		xmlns:v="http://schemas.microsoft.com/visio/2003/SVGExtensions/" width="11in" height="8.5in" viewBox="0 0 792 612"
		xml:space="preserve" color-interpolation-filters="sRGB" class="st6">
	<v:documentProperties v:langID="1033" v:viewMarkup="false">
		<v:userDefs>
			<v:ud v:nameU="msvNoAutoConnect" v:prompt="" v:val="VT0(0):26"/>
		</v:userDefs>
	</v:documentProperties>

	<style type="text/css">
	<![CDATA[
		.st1 {stroke:#43699c;stroke-linecap:round;stroke-linejoin:round;stroke-width:2.25}
		.st2 {stroke:#257ca7;stroke-linecap:round;stroke-linejoin:round;stroke-width:2.25}
		.st3 {fill:#ffffff;stroke:#257ca7;stroke-linecap:round;stroke-linejoin:round;stroke-width:2.25}
		.st4 {fill:#43699c;font-family:UAF Sans Medium;font-size:1.5em}
		.st5 {fill:none;stroke:none;stroke-linecap:round;stroke-linejoin:round;stroke-width:2.25}
		.st6 {fill:none;fill-rule:evenodd;font-size:12px;overflow:visible;stroke-linecap:square;stroke-miterlimit:3}
	]]>
	</style>

	<g v:mID="11" v:index="1" v:groupContext="foregroundPage">
		<v:userDefs>
			<v:ud v:nameU="msvThemeOrder" v:val="VT0(0):26"/>
			<v:ud v:nameU="visNavType" v:val="VT0(1):26"/>
		</v:userDefs>
		<title>Page-1</title>
		<v:pageProperties v:drawingScale="1" v:pageScale="1" v:drawingUnits="0" v:shadowOffsetX="9" v:shadowOffsetY="-9"/>
		<v:layer v:name="Container" v:index="0"/>
		<v:layer v:name="Connector" v:index="1"/>
		<g id="group34-1" transform="translate(27,-103.5)" v:mID="34" v:groupContext="group">
			<v:userDefs>
				<v:ud v:nameU="visNavOrder" v:val="VT0(14000):26"/>
			</v:userDefs>
			<title>Sheet.34</title>
			<g id="shape18-2" v:mID="18" v:groupContext="shape" v:layerMember="1" transform="translate(461.204,-80.6786)">
				<title>Dynamic connector.18</title>
				<v:userDefs>
					<v:ud v:nameU="visNavOrder" v:val="VT0(8000):26"/>
				</v:userDefs>
				<path d="M0 603 C52.07 603 156.21 603 208.29 603" class="st1"/>
			</g>
			<g id="shape17-5" v:mID="17" v:groupContext="shape" v:layerMember="1" transform="translate(59.5102,-80.6786)">
				<title>Dynamic connector.17</title>
				<v:userDefs>
					<v:ud v:nameU="visNavOrder" v:val="VT0(7000):26"/>
				</v:userDefs>
				<path d="M0 603 C85.55 603 256.64 603 342.18 603" class="st1"/>
			</g>
			<g id="shape16-8" v:mID="16" v:groupContext="shape" v:layerMember="1" transform="translate(59.5102,-341.036)">
				<title>Dynamic connector</title>
				<v:userDefs>
					<v:ud v:nameU="visNavOrder" v:val="VT0(6000):26"/>
				</v:userDefs>
				<path d="M0 603 C85.55 603 256.64 603 342.18 603" class="st1"/>
			</g>
			<g id="shape19-11" v:mID="19" v:groupContext="shape" v:layerMember="1" transform="translate(392.694,-350.036)">
				<title>Dynamic connector.19</title>
				<v:userDefs>
					<v:ud v:nameU="visNavOrder" v:val="VT0(9000):26"/>
				</v:userDefs>
				<path d="M9 612 C9 677.09 9 807.27 9 872.36" class="st1"/>
			</g>
			<g id="shape20-14" v:mID="20" v:groupContext="shape" v:layerMember="1" transform="translate(50.5102,-350.036)">
				<title>Dynamic connector.20</title>
				<v:userDefs>
					<v:ud v:nameU="visNavOrder" v:val="VT0(10000):26"/>
				</v:userDefs>
				<path d="M9 612 C9 677.09 9 807.27 9 872.36" class="st1"/>
			</g>
			<g id="shape21-17" v:mID="21" v:groupContext="shape" v:layerMember="1" transform="translate(59.5102,-350.036)">
				<title>Dynamic connector.21</title>
				<v:userDefs>
					<v:ud v:nameU="visNavOrder" v:val="VT0(11000):26"/>
				</v:userDefs>
				<path d="M0 612 L342.18 872.36" class="st1"/>
			</g>
			<g id="shape22-20" v:mID="22" v:groupContext="shape" v:layerMember="1" transform="translate(59.5102,-89.6786)">
				<title>Dynamic connector.22</title>
				<v:userDefs>
					<v:ud v:nameU="visNavOrder" v:val="VT0(12000):26"/>
				</v:userDefs>
				<path d="M0 612 L342.18 351.64" class="st2"/>
			</g>
			<g id="group1-23" transform="translate(-4.79616E-14,-290.525)" v:mID="1" v:groupContext="group">
				<v:custProps>
					<v:cp v:nameU="AssetNumber" v:lbl="Asset Number" v:prompt="" v:type="0" v:format="" v:sortKey="Asset"
							v:invis="false" v:ask="false" v:langID="1033" v:cal="0"/>
					<v:cp v:nameU="SerialNumber" v:lbl="Serial Number" v:prompt="" v:type="0" v:format="" v:sortKey="Asset"
							v:invis="false" v:ask="false" v:langID="1033" v:cal="0"/>
					<v:cp v:nameU="Location" v:lbl="Location" v:prompt="" v:type="0" v:format="" v:sortKey="Asset" v:invis="false"
							v:ask="false" v:langID="1033" v:cal="0"/>
					<v:cp v:nameU="Building" v:lbl="Building" v:prompt="" v:type="0" v:format="" v:sortKey="Asset" v:invis="false"
							v:ask="false" v:langID="1033" v:cal="0"/>
					<v:cp v:nameU="Room" v:lbl="Room" v:prompt="" v:type="0" v:format="" v:sortKey="Asset" v:invis="false"
							v:ask="false" v:langID="1033" v:cal="0"/>
					<v:cp v:nameU="Manufacturer" v:lbl="Manufacturer" v:prompt="" v:type="0" v:format="" v:sortKey="Equipment"
							v:invis="false" v:ask="false" v:langID="1033" v:cal="0"/>
					<v:cp v:nameU="ProductNumber" v:lbl="Product Number" v:prompt="" v:type="0" v:format="" v:sortKey="Equipment"
							v:invis="false" v:ask="false" v:langID="1033" v:cal="0"/>
					<v:cp v:nameU="PartNumber" v:lbl="Part Number" v:prompt="" v:type="0" v:format="" v:sortKey="Equipment"
							v:invis="false" v:ask="false" v:langID="1033" v:cal="0"/>
					<v:cp v:nameU="ProductDescription" v:lbl="Product Description" v:prompt="" v:type="0" v:format=""
							v:sortKey="Equipment" v:invis="false" v:ask="false" v:langID="1033" v:cal="0"/>
					<v:cp v:nameU="NetworkName" v:lbl="Network Name" v:prompt="" v:type="0" v:format="" v:sortKey="Network"
							v:invis="false" v:ask="false" v:langID="1033" v:cal="0"/>
					<v:cp v:nameU="IPAddress" v:lbl="IP Address" v:prompt="" v:type="0" v:format="" v:sortKey="Network"
							v:invis="false" v:ask="false" v:langID="1033" v:cal="0"/>
					<v:cp v:nameU="SubnetMask" v:lbl="Subnet Mask" v:prompt="" v:type="0" v:format="" v:sortKey="Network"
							v:invis="false" v:ask="false" v:langID="1033" v:cal="0"/>
					<v:cp v:nameU="AdminInterface" v:lbl="Administrative Interface" v:prompt="" v:type="0" v:format=""
							v:sortKey="Network" v:invis="false" v:ask="false" v:langID="1033" v:cal="0"/>
					<v:cp v:nameU="NumberofPorts" v:lbl="Number of Ports" v:prompt="" v:type="0" v:format="" v:sortKey="Network"
							v:invis="false" v:ask="false" v:langID="1033" v:cal="0"/>
					<v:cp v:nameU="CommunityString" v:lbl="Community String" v:prompt="" v:type="0" v:format="" v:sortKey="Network"
							v:invis="false" v:ask="false" v:langID="1033" v:cal="0"/>
					<v:cp v:nameU="NetworkDescription" v:lbl="Network Description" v:prompt="" v:type="0" v:format=""
							v:sortKey="Network" v:invis="false" v:ask="false" v:langID="1033" v:cal="0"/>
					<v:cp v:nameU="MACAddress" v:lbl="MAC Address" v:prompt="" v:type="0" v:format="" v:sortKey="Network"
							v:invis="false" v:ask="false" v:langID="1033" v:cal="0"/>
					<v:cp v:nameU="ShapeClass" v:lbl="ShapeClass" v:prompt="" v:type="0" v:format="" v:sortKey="" v:invis="true"
							v:ask="false" v:langID="1033" v:cal="0" v:val="VT4(Equipment)"/>
					<v:cp v:nameU="ShapeType" v:lbl="ShapeType" v:prompt="" v:type="0" v:format="" v:sortKey="" v:invis="true"
							v:ask="false" v:langID="1033" v:cal="0" v:val="VT4(Device)"/>
					<v:cp v:nameU="SubShapeType" v:lbl="SubShapeType" v:prompt="" v:type="0" v:format="" v:sortKey=""
							v:invis="true" v:ask="false" v:langID="1033" v:cal="0" v:val="VT4(Router)"/>
				</v:custProps>
				<v:userDefs>
					<v:ud v:nameU="visVersion" v:prompt="" v:val="VT0(15):26"/>
					<v:ud v:nameU="ShapeClass" v:prompt="" v:val="VT0(5):26"/>
					<v:ud v:nameU="SolSH" v:prompt="" v:val="VT15({BF0433D9-CD73-4EB5-8390-8653BE590246}):41"/>
					<v:ud v:nameU="visLegendShape" v:prompt="" v:val="VT0(2):26"/>
					<v:ud v:nameU="visNavOrder" v:val="VT0(1000):26"/>
				</v:userDefs>
				<title>Router</title>
				<desc>R1:1.1.1.1</desc>
				<g id="shape2-24" v:mID="2" v:groupContext="shape" transform="translate(0,-0.658927)">
					<title>Sheet.2</title>
					<path d="M0 507.74 L0 598.55 A59.5102 13.446 -180 0 0 119.02 598.55 L119.02 507.74 A59.5102 13.446 0 0 1 0 507.74
								 ZM119.02 507.74 A59.5102 13.446 -180 1 0 0 507.74 A59.5102 13.446 -180 1 0 119.02 507.74 Z"
							class="st3"/>
				</g>
				<g id="shape3-26" v:mID="3" v:groupContext="shape" transform="translate(18.7846,-12.5871)">
					<title>Sheet.3</title>
					<path d="M44.09 600.01 L44.09 582.83 L37.18 582.83 L37.18 599.92 L29.1 591.75 L29.1 601.39 L40.66 612 L52.23
								 601.34 L52.23 591.79 L44.09 600.01 ZM64.26 582.38 C70.03 582.67 75.85 582 81.46 580.37 L81.46 573.46
								 C75.88 575.07 70.09 575.75 64.34 575.47 C67.1 572.92 69.85 570.14 72.59 567.14 C69.36 567.5 66.1
								 567.55 62.86 567.3 C59.3 570.88 55.76 574.09 52.29 576.94 C55.77 581.81 59.33 586.3 62.92 590.44
								 C66.13 590.68 69.35 590.63 72.55 590.28 C69.8 587.87 67.02 585.23 64.26 582.38 ZM17.2 575.54 C11.42
								 575.83 5.61 575.16 0 573.53 L0 580.44 C5.58 582.06 11.36 582.73 17.11 582.45 C14.36 585.28 11.6
								 587.89 8.86 590.28 C12.1 590.63 15.36 590.68 18.6 590.44 C22.16 586.31 25.7 581.81 29.16 576.95
								 C25.68 574.11 22.12 570.89 18.54 567.31 C15.33 567.55 12.11 567.5 8.9 567.15 C11.66 570.17 14.43
								 572.96 17.2 575.54 ZM37.3 554.14 L37.3 571.31 L44.22 571.31 L44.22 554.23 L52.29 562.4 L52.29 552.75
								 L40.73 542.15 L29.16 552.81 L29.16 562.36 L37.3 554.14 Z" class="st3"/>
				</g>
				<g id="shape1-28" v:mID="1" v:groupContext="groupContent">
					<v:textBlock v:margins="rect(4,4,4,4)"/>
					<v:textRect cx="59.5102" cy="626.802" width="80.64" height="29.6036"/>
					<text x="25.18" y="632.2" class="st4" v:langID="1033"><v:paragraph v:horizAlign="1"/><v:tabList/>R1:1.1.1.1</text>				</g>
			</g>
			<g id="group4-30" transform="translate(342.184,-290.525)" v:mID="4" v:groupContext="group">
				<v:custProps>
					<v:cp v:nameU="AssetNumber" v:lbl="Asset Number" v:prompt="" v:type="0" v:format="" v:sortKey="Asset"
							v:invis="false" v:ask="false" v:langID="1033" v:cal="0"/>
					<v:cp v:nameU="SerialNumber" v:lbl="Serial Number" v:prompt="" v:type="0" v:format="" v:sortKey="Asset"
							v:invis="false" v:ask="false" v:langID="1033" v:cal="0"/>
					<v:cp v:nameU="Location" v:lbl="Location" v:prompt="" v:type="0" v:format="" v:sortKey="Asset" v:invis="false"
							v:ask="false" v:langID="1033" v:cal="0"/>
					<v:cp v:nameU="Building" v:lbl="Building" v:prompt="" v:type="0" v:format="" v:sortKey="Asset" v:invis="false"
							v:ask="false" v:langID="1033" v:cal="0"/>
					<v:cp v:nameU="Room" v:lbl="Room" v:prompt="" v:type="0" v:format="" v:sortKey="Asset" v:invis="false"
							v:ask="false" v:langID="1033" v:cal="0"/>
					<v:cp v:nameU="Manufacturer" v:lbl="Manufacturer" v:prompt="" v:type="0" v:format="" v:sortKey="Equipment"
							v:invis="false" v:ask="false" v:langID="1033" v:cal="0"/>
					<v:cp v:nameU="ProductNumber" v:lbl="Product Number" v:prompt="" v:type="0" v:format="" v:sortKey="Equipment"
							v:invis="false" v:ask="false" v:langID="1033" v:cal="0"/>
					<v:cp v:nameU="PartNumber" v:lbl="Part Number" v:prompt="" v:type="0" v:format="" v:sortKey="Equipment"
							v:invis="false" v:ask="false" v:langID="1033" v:cal="0"/>
					<v:cp v:nameU="ProductDescription" v:lbl="Product Description" v:prompt="" v:type="0" v:format=""
							v:sortKey="Equipment" v:invis="false" v:ask="false" v:langID="1033" v:cal="0"/>
					<v:cp v:nameU="NetworkName" v:lbl="Network Name" v:prompt="" v:type="0" v:format="" v:sortKey="Network"
							v:invis="false" v:ask="false" v:langID="1033" v:cal="0"/>
					<v:cp v:nameU="IPAddress" v:lbl="IP Address" v:prompt="" v:type="0" v:format="" v:sortKey="Network"
							v:invis="false" v:ask="false" v:langID="1033" v:cal="0"/>
					<v:cp v:nameU="SubnetMask" v:lbl="Subnet Mask" v:prompt="" v:type="0" v:format="" v:sortKey="Network"
							v:invis="false" v:ask="false" v:langID="1033" v:cal="0"/>
					<v:cp v:nameU="AdminInterface" v:lbl="Administrative Interface" v:prompt="" v:type="0" v:format=""
							v:sortKey="Network" v:invis="false" v:ask="false" v:langID="1033" v:cal="0"/>
					<v:cp v:nameU="NumberofPorts" v:lbl="Number of Ports" v:prompt="" v:type="0" v:format="" v:sortKey="Network"
							v:invis="false" v:ask="false" v:langID="1033" v:cal="0"/>
					<v:cp v:nameU="CommunityString" v:lbl="Community String" v:prompt="" v:type="0" v:format="" v:sortKey="Network"
							v:invis="false" v:ask="false" v:langID="1033" v:cal="0"/>
					<v:cp v:nameU="NetworkDescription" v:lbl="Network Description" v:prompt="" v:type="0" v:format=""
							v:sortKey="Network" v:invis="false" v:ask="false" v:langID="1033" v:cal="0"/>
					<v:cp v:nameU="MACAddress" v:lbl="MAC Address" v:prompt="" v:type="0" v:format="" v:sortKey="Network"
							v:invis="false" v:ask="false" v:langID="1033" v:cal="0"/>
					<v:cp v:nameU="ShapeClass" v:lbl="ShapeClass" v:prompt="" v:type="0" v:format="" v:sortKey="" v:invis="true"
							v:ask="false" v:langID="1033" v:cal="0" v:val="VT4(Equipment)"/>
					<v:cp v:nameU="ShapeType" v:lbl="ShapeType" v:prompt="" v:type="0" v:format="" v:sortKey="" v:invis="true"
							v:ask="false" v:langID="1033" v:cal="0" v:val="VT4(Device)"/>
					<v:cp v:nameU="SubShapeType" v:lbl="SubShapeType" v:prompt="" v:type="0" v:format="" v:sortKey=""
							v:invis="true" v:ask="false" v:langID="1033" v:cal="0" v:val="VT4(Router)"/>
				</v:custProps>
				<v:userDefs>
					<v:ud v:nameU="visVersion" v:prompt="" v:val="VT0(15):26"/>
					<v:ud v:nameU="ShapeClass" v:prompt="" v:val="VT0(5):26"/>
					<v:ud v:nameU="SolSH" v:prompt="" v:val="VT15({BF0433D9-CD73-4EB5-8390-8653BE590246}):41"/>
					<v:ud v:nameU="visLegendShape" v:prompt="" v:val="VT0(2):26"/>
					<v:ud v:nameU="visNavOrder" v:val="VT0(2000):26"/>
				</v:userDefs>
				<title>Router.4</title>
				<desc>R2:2.2.2.2</desc>
				<g id="shape5-31" v:mID="5" v:groupContext="shape" transform="translate(0,-0.658927)">
					<title>Sheet.5</title>
					<path d="M0 507.74 L0 598.55 A59.5102 13.446 -180 0 0 119.02 598.55 L119.02 507.74 A59.5102 13.446 0 0 1 0 507.74
								 ZM119.02 507.74 A59.5102 13.446 -180 1 0 0 507.74 A59.5102 13.446 -180 1 0 119.02 507.74 Z"
							class="st3"/>
				</g>
				<g id="shape6-33" v:mID="6" v:groupContext="shape" transform="translate(18.7846,-12.5871)">
					<title>Sheet.6</title>
					<path d="M44.09 600.01 L44.09 582.83 L37.18 582.83 L37.18 599.92 L29.1 591.75 L29.1 601.39 L40.66 612 L52.23
								 601.34 L52.23 591.79 L44.09 600.01 ZM64.26 582.38 C70.03 582.67 75.85 582 81.46 580.37 L81.46 573.46
								 C75.88 575.07 70.09 575.75 64.34 575.47 C67.1 572.92 69.85 570.14 72.59 567.14 C69.36 567.5 66.1
								 567.55 62.86 567.3 C59.3 570.88 55.76 574.09 52.29 576.94 C55.77 581.81 59.33 586.3 62.92 590.44
								 C66.13 590.68 69.35 590.63 72.55 590.28 C69.8 587.87 67.02 585.23 64.26 582.38 ZM17.2 575.54 C11.42
								 575.83 5.61 575.16 0 573.53 L0 580.44 C5.58 582.06 11.36 582.73 17.11 582.45 C14.36 585.28 11.6
								 587.89 8.86 590.28 C12.1 590.63 15.36 590.68 18.6 590.44 C22.16 586.31 25.7 581.81 29.16 576.95
								 C25.68 574.11 22.12 570.89 18.54 567.31 C15.33 567.55 12.11 567.5 8.9 567.15 C11.66 570.17 14.43
								 572.96 17.2 575.54 ZM37.3 554.14 L37.3 571.31 L44.22 571.31 L44.22 554.23 L52.29 562.4 L52.29 552.75
								 L40.73 542.15 L29.16 552.81 L29.16 562.36 L37.3 554.14 Z" class="st3"/>
				</g>
				<g id="shape4-35" v:mID="4" v:groupContext="groupContent">
					<v:textBlock v:margins="rect(4,4,4,4)"/>
					<v:textRect cx="59.5102" cy="626.802" width="94.27" height="29.6036"/>
					<text x="17.75" y="632.2" class="st4" v:langID="1033"><v:paragraph v:horizAlign="1"/><v:tabList/>R2:2.2.2.2</text>				</g>
			</g>
			<g id="group7-37" transform="translate(-4.79616E-14,-30.1684)" v:mID="7" v:groupContext="group">
				<v:custProps>
					<v:cp v:nameU="AssetNumber" v:lbl="Asset Number" v:prompt="" v:type="0" v:format="" v:sortKey="Asset"
							v:invis="false" v:ask="false" v:langID="1033" v:cal="0"/>
					<v:cp v:nameU="SerialNumber" v:lbl="Serial Number" v:prompt="" v:type="0" v:format="" v:sortKey="Asset"
							v:invis="false" v:ask="false" v:langID="1033" v:cal="0"/>
					<v:cp v:nameU="Location" v:lbl="Location" v:prompt="" v:type="0" v:format="" v:sortKey="Asset" v:invis="false"
							v:ask="false" v:langID="1033" v:cal="0"/>
					<v:cp v:nameU="Building" v:lbl="Building" v:prompt="" v:type="0" v:format="" v:sortKey="Asset" v:invis="false"
							v:ask="false" v:langID="1033" v:cal="0"/>
					<v:cp v:nameU="Room" v:lbl="Room" v:prompt="" v:type="0" v:format="" v:sortKey="Asset" v:invis="false"
							v:ask="false" v:langID="1033" v:cal="0"/>
					<v:cp v:nameU="Manufacturer" v:lbl="Manufacturer" v:prompt="" v:type="0" v:format="" v:sortKey="Equipment"
							v:invis="false" v:ask="false" v:langID="1033" v:cal="0"/>
					<v:cp v:nameU="ProductNumber" v:lbl="Product Number" v:prompt="" v:type="0" v:format="" v:sortKey="Equipment"
							v:invis="false" v:ask="false" v:langID="1033" v:cal="0"/>
					<v:cp v:nameU="PartNumber" v:lbl="Part Number" v:prompt="" v:type="0" v:format="" v:sortKey="Equipment"
							v:invis="false" v:ask="false" v:langID="1033" v:cal="0"/>
					<v:cp v:nameU="ProductDescription" v:lbl="Product Description" v:prompt="" v:type="0" v:format=""
							v:sortKey="Equipment" v:invis="false" v:ask="false" v:langID="1033" v:cal="0"/>
					<v:cp v:nameU="NetworkName" v:lbl="Network Name" v:prompt="" v:type="0" v:format="" v:sortKey="Network"
							v:invis="false" v:ask="false" v:langID="1033" v:cal="0"/>
					<v:cp v:nameU="IPAddress" v:lbl="IP Address" v:prompt="" v:type="0" v:format="" v:sortKey="Network"
							v:invis="false" v:ask="false" v:langID="1033" v:cal="0"/>
					<v:cp v:nameU="SubnetMask" v:lbl="Subnet Mask" v:prompt="" v:type="0" v:format="" v:sortKey="Network"
							v:invis="false" v:ask="false" v:langID="1033" v:cal="0"/>
					<v:cp v:nameU="AdminInterface" v:lbl="Administrative Interface" v:prompt="" v:type="0" v:format=""
							v:sortKey="Network" v:invis="false" v:ask="false" v:langID="1033" v:cal="0"/>
					<v:cp v:nameU="NumberofPorts" v:lbl="Number of Ports" v:prompt="" v:type="0" v:format="" v:sortKey="Network"
							v:invis="false" v:ask="false" v:langID="1033" v:cal="0"/>
					<v:cp v:nameU="CommunityString" v:lbl="Community String" v:prompt="" v:type="0" v:format="" v:sortKey="Network"
							v:invis="false" v:ask="false" v:langID="1033" v:cal="0"/>
					<v:cp v:nameU="NetworkDescription" v:lbl="Network Description" v:prompt="" v:type="0" v:format=""
							v:sortKey="Network" v:invis="false" v:ask="false" v:langID="1033" v:cal="0"/>
					<v:cp v:nameU="MACAddress" v:lbl="MAC Address" v:prompt="" v:type="0" v:format="" v:sortKey="Network"
							v:invis="false" v:ask="false" v:langID="1033" v:cal="0"/>
					<v:cp v:nameU="ShapeClass" v:lbl="ShapeClass" v:prompt="" v:type="0" v:format="" v:sortKey="" v:invis="true"
							v:ask="false" v:langID="1033" v:cal="0" v:val="VT4(Equipment)"/>
					<v:cp v:nameU="ShapeType" v:lbl="ShapeType" v:prompt="" v:type="0" v:format="" v:sortKey="" v:invis="true"
							v:ask="false" v:langID="1033" v:cal="0" v:val="VT4(Device)"/>
					<v:cp v:nameU="SubShapeType" v:lbl="SubShapeType" v:prompt="" v:type="0" v:format="" v:sortKey=""
							v:invis="true" v:ask="false" v:langID="1033" v:cal="0" v:val="VT4(Router)"/>
				</v:custProps>
				<v:userDefs>
					<v:ud v:nameU="visVersion" v:prompt="" v:val="VT0(15):26"/>
					<v:ud v:nameU="ShapeClass" v:prompt="" v:val="VT0(5):26"/>
					<v:ud v:nameU="SolSH" v:prompt="" v:val="VT15({BF0433D9-CD73-4EB5-8390-8653BE590246}):41"/>
					<v:ud v:nameU="visLegendShape" v:prompt="" v:val="VT0(2):26"/>
					<v:ud v:nameU="visNavOrder" v:val="VT0(3000):26"/>
				</v:userDefs>
				<title>Router.7</title>
				<desc>R3:3.3.3.3</desc>
				<g id="shape8-38" v:mID="8" v:groupContext="shape" transform="translate(0,-0.658927)">
					<title>Sheet.8</title>
					<path d="M0 507.74 L0 598.55 A59.5102 13.446 -180 0 0 119.02 598.55 L119.02 507.74 A59.5102 13.446 0 0 1 0 507.74
								 ZM119.02 507.74 A59.5102 13.446 -180 1 0 0 507.74 A59.5102 13.446 -180 1 0 119.02 507.74 Z"
							class="st3"/>
				</g>
				<g id="shape9-40" v:mID="9" v:groupContext="shape" transform="translate(18.7846,-12.5871)">
					<title>Sheet.9</title>
					<path d="M44.09 600.01 L44.09 582.83 L37.18 582.83 L37.18 599.92 L29.1 591.75 L29.1 601.39 L40.66 612 L52.23
								 601.34 L52.23 591.79 L44.09 600.01 ZM64.26 582.38 C70.03 582.67 75.85 582 81.46 580.37 L81.46 573.46
								 C75.88 575.07 70.09 575.75 64.34 575.47 C67.1 572.92 69.85 570.14 72.59 567.14 C69.36 567.5 66.1
								 567.55 62.86 567.3 C59.3 570.88 55.76 574.09 52.29 576.94 C55.77 581.81 59.33 586.3 62.92 590.44
								 C66.13 590.68 69.35 590.63 72.55 590.28 C69.8 587.87 67.02 585.23 64.26 582.38 ZM17.2 575.54 C11.42
								 575.83 5.61 575.16 0 573.53 L0 580.44 C5.58 582.06 11.36 582.73 17.11 582.45 C14.36 585.28 11.6
								 587.89 8.86 590.28 C12.1 590.63 15.36 590.68 18.6 590.44 C22.16 586.31 25.7 581.81 29.16 576.95
								 C25.68 574.11 22.12 570.89 18.54 567.31 C15.33 567.55 12.11 567.5 8.9 567.15 C11.66 570.17 14.43
								 572.96 17.2 575.54 ZM37.3 554.14 L37.3 571.31 L44.22 571.31 L44.22 554.23 L52.29 562.4 L52.29 552.75
								 L40.73 542.15 L29.16 552.81 L29.16 562.36 L37.3 554.14 Z" class="st3"/>
				</g>
				<g id="shape7-42" v:mID="7" v:groupContext="groupContent">
					<v:textBlock v:margins="rect(4,4,4,4)"/>
					<v:textRect cx="59.5102" cy="626.802" width="98.01" height="29.6036"/>
					<text x="16.49" y="632.2" class="st4" v:langID="1033"><v:paragraph v:horizAlign="1"/><v:tabList/>R3:3.3.3.3</text>				</g>
			</g>
			<g id="group10-44" transform="translate(342.184,-30.1684)" v:mID="10" v:groupContext="group">
				<v:custProps>
					<v:cp v:nameU="AssetNumber" v:lbl="Asset Number" v:prompt="" v:type="0" v:format="" v:sortKey="Asset"
							v:invis="false" v:ask="false" v:langID="1033" v:cal="0"/>
					<v:cp v:nameU="SerialNumber" v:lbl="Serial Number" v:prompt="" v:type="0" v:format="" v:sortKey="Asset"
							v:invis="false" v:ask="false" v:langID="1033" v:cal="0"/>
					<v:cp v:nameU="Location" v:lbl="Location" v:prompt="" v:type="0" v:format="" v:sortKey="Asset" v:invis="false"
							v:ask="false" v:langID="1033" v:cal="0"/>
					<v:cp v:nameU="Building" v:lbl="Building" v:prompt="" v:type="0" v:format="" v:sortKey="Asset" v:invis="false"
							v:ask="false" v:langID="1033" v:cal="0"/>
					<v:cp v:nameU="Room" v:lbl="Room" v:prompt="" v:type="0" v:format="" v:sortKey="Asset" v:invis="false"
							v:ask="false" v:langID="1033" v:cal="0"/>
					<v:cp v:nameU="Manufacturer" v:lbl="Manufacturer" v:prompt="" v:type="0" v:format="" v:sortKey="Equipment"
							v:invis="false" v:ask="false" v:langID="1033" v:cal="0"/>
					<v:cp v:nameU="ProductNumber" v:lbl="Product Number" v:prompt="" v:type="0" v:format="" v:sortKey="Equipment"
							v:invis="false" v:ask="false" v:langID="1033" v:cal="0"/>
					<v:cp v:nameU="PartNumber" v:lbl="Part Number" v:prompt="" v:type="0" v:format="" v:sortKey="Equipment"
							v:invis="false" v:ask="false" v:langID="1033" v:cal="0"/>
					<v:cp v:nameU="ProductDescription" v:lbl="Product Description" v:prompt="" v:type="0" v:format=""
							v:sortKey="Equipment" v:invis="false" v:ask="false" v:langID="1033" v:cal="0"/>
					<v:cp v:nameU="NetworkName" v:lbl="Network Name" v:prompt="" v:type="0" v:format="" v:sortKey="Network"
							v:invis="false" v:ask="false" v:langID="1033" v:cal="0"/>
					<v:cp v:nameU="IPAddress" v:lbl="IP Address" v:prompt="" v:type="0" v:format="" v:sortKey="Network"
							v:invis="false" v:ask="false" v:langID="1033" v:cal="0"/>
					<v:cp v:nameU="SubnetMask" v:lbl="Subnet Mask" v:prompt="" v:type="0" v:format="" v:sortKey="Network"
							v:invis="false" v:ask="false" v:langID="1033" v:cal="0"/>
					<v:cp v:nameU="AdminInterface" v:lbl="Administrative Interface" v:prompt="" v:type="0" v:format=""
							v:sortKey="Network" v:invis="false" v:ask="false" v:langID="1033" v:cal="0"/>
					<v:cp v:nameU="NumberofPorts" v:lbl="Number of Ports" v:prompt="" v:type="0" v:format="" v:sortKey="Network"
							v:invis="false" v:ask="false" v:langID="1033" v:cal="0"/>
					<v:cp v:nameU="CommunityString" v:lbl="Community String" v:prompt="" v:type="0" v:format="" v:sortKey="Network"
							v:invis="false" v:ask="false" v:langID="1033" v:cal="0"/>
					<v:cp v:nameU="NetworkDescription" v:lbl="Network Description" v:prompt="" v:type="0" v:format=""
							v:sortKey="Network" v:invis="false" v:ask="false" v:langID="1033" v:cal="0"/>
					<v:cp v:nameU="MACAddress" v:lbl="MAC Address" v:prompt="" v:type="0" v:format="" v:sortKey="Network"
							v:invis="false" v:ask="false" v:langID="1033" v:cal="0"/>
					<v:cp v:nameU="ShapeClass" v:lbl="ShapeClass" v:prompt="" v:type="0" v:format="" v:sortKey="" v:invis="true"
							v:ask="false" v:langID="1033" v:cal="0" v:val="VT4(Equipment)"/>
					<v:cp v:nameU="ShapeType" v:lbl="ShapeType" v:prompt="" v:type="0" v:format="" v:sortKey="" v:invis="true"
							v:ask="false" v:langID="1033" v:cal="0" v:val="VT4(Device)"/>
					<v:cp v:nameU="SubShapeType" v:lbl="SubShapeType" v:prompt="" v:type="0" v:format="" v:sortKey=""
							v:invis="true" v:ask="false" v:langID="1033" v:cal="0" v:val="VT4(Router)"/>
				</v:custProps>
				<v:userDefs>
					<v:ud v:nameU="visVersion" v:prompt="" v:val="VT0(15):26"/>
					<v:ud v:nameU="ShapeClass" v:prompt="" v:val="VT0(5):26"/>
					<v:ud v:nameU="SolSH" v:prompt="" v:val="VT15({BF0433D9-CD73-4EB5-8390-8653BE590246}):41"/>
					<v:ud v:nameU="visLegendShape" v:prompt="" v:val="VT0(2):26"/>
					<v:ud v:nameU="visNavOrder" v:val="VT0(4000):26"/>
				</v:userDefs>
				<title>Router.10</title>
				<g id="shape11-45" v:mID="11" v:groupContext="shape" transform="translate(0,-0.658927)">
					<title>Sheet.11</title>
					<path d="M0 507.74 L0 598.55 A59.5102 13.446 -180 0 0 119.02 598.55 L119.02 507.74 A59.5102 13.446 0 0 1 0 507.74
								 ZM119.02 507.74 A59.5102 13.446 -180 1 0 0 507.74 A59.5102 13.446 -180 1 0 119.02 507.74 Z"
							class="st3"/>
				</g>
				<g id="shape12-47" v:mID="12" v:groupContext="shape" transform="translate(18.7846,-12.5871)">
					<title>Sheet.12</title>
					<path d="M44.09 600.01 L44.09 582.83 L37.18 582.83 L37.18 599.92 L29.1 591.75 L29.1 601.39 L40.66 612 L52.23
								 601.34 L52.23 591.79 L44.09 600.01 ZM64.26 582.38 C70.03 582.67 75.85 582 81.46 580.37 L81.46 573.46
								 C75.88 575.07 70.09 575.75 64.34 575.47 C67.1 572.92 69.85 570.14 72.59 567.14 C69.36 567.5 66.1
								 567.55 62.86 567.3 C59.3 570.88 55.76 574.09 52.29 576.94 C55.77 581.81 59.33 586.3 62.92 590.44
								 C66.13 590.68 69.35 590.63 72.55 590.28 C69.8 587.87 67.02 585.23 64.26 582.38 ZM17.2 575.54 C11.42
								 575.83 5.61 575.16 0 573.53 L0 580.44 C5.58 582.06 11.36 582.73 17.11 582.45 C14.36 585.28 11.6
								 587.89 8.86 590.28 C12.1 590.63 15.36 590.68 18.6 590.44 C22.16 586.31 25.7 581.81 29.16 576.95
								 C25.68 574.11 22.12 570.89 18.54 567.31 C15.33 567.55 12.11 567.5 8.9 567.15 C11.66 570.17 14.43
								 572.96 17.2 575.54 ZM37.3 554.14 L37.3 571.31 L44.22 571.31 L44.22 554.23 L52.29 562.4 L52.29 552.75
								 L40.73 542.15 L29.16 552.81 L29.16 562.36 L37.3 554.14 Z" class="st3"/>
				</g>
			</g>
			<g id="group13-49" transform="translate(609.98,-30.1684)" v:mID="13" v:groupContext="group">
				<v:custProps>
					<v:cp v:nameU="AssetNumber" v:lbl="Asset Number" v:prompt="" v:type="0" v:format="" v:sortKey="Asset"
							v:invis="false" v:ask="false" v:langID="1033" v:cal="0"/>
					<v:cp v:nameU="SerialNumber" v:lbl="Serial Number" v:prompt="" v:type="0" v:format="" v:sortKey="Asset"
							v:invis="false" v:ask="false" v:langID="1033" v:cal="0"/>
					<v:cp v:nameU="Location" v:lbl="Location" v:prompt="" v:type="0" v:format="" v:sortKey="Asset" v:invis="false"
							v:ask="false" v:langID="1033" v:cal="0"/>
					<v:cp v:nameU="Building" v:lbl="Building" v:prompt="" v:type="0" v:format="" v:sortKey="Asset" v:invis="false"
							v:ask="false" v:langID="1033" v:cal="0"/>
					<v:cp v:nameU="Room" v:lbl="Room" v:prompt="" v:type="0" v:format="" v:sortKey="Asset" v:invis="false"
							v:ask="false" v:langID="1033" v:cal="0"/>
					<v:cp v:nameU="Manufacturer" v:lbl="Manufacturer" v:prompt="" v:type="0" v:format="" v:sortKey="Equipment"
							v:invis="false" v:ask="false" v:langID="1033" v:cal="0"/>
					<v:cp v:nameU="ProductNumber" v:lbl="Product Number" v:prompt="" v:type="0" v:format="" v:sortKey="Equipment"
							v:invis="false" v:ask="false" v:langID="1033" v:cal="0"/>
					<v:cp v:nameU="PartNumber" v:lbl="Part Number" v:prompt="" v:type="0" v:format="" v:sortKey="Equipment"
							v:invis="false" v:ask="false" v:langID="1033" v:cal="0"/>
					<v:cp v:nameU="ProductDescription" v:lbl="Product Description" v:prompt="" v:type="0" v:format=""
							v:sortKey="Equipment" v:invis="false" v:ask="false" v:langID="1033" v:cal="0"/>
					<v:cp v:nameU="NetworkName" v:lbl="Network Name" v:prompt="" v:type="0" v:format="" v:sortKey="Network"
							v:invis="false" v:ask="false" v:langID="1033" v:cal="0"/>
					<v:cp v:nameU="IPAddress" v:lbl="IP Address" v:prompt="" v:type="0" v:format="" v:sortKey="Network"
							v:invis="false" v:ask="false" v:langID="1033" v:cal="0"/>
					<v:cp v:nameU="SubnetMask" v:lbl="Subnet Mask" v:prompt="" v:type="0" v:format="" v:sortKey="Network"
							v:invis="false" v:ask="false" v:langID="1033" v:cal="0"/>
					<v:cp v:nameU="AdminInterface" v:lbl="Administrative Interface" v:prompt="" v:type="0" v:format=""
							v:sortKey="Network" v:invis="false" v:ask="false" v:langID="1033" v:cal="0"/>
					<v:cp v:nameU="NumberofPorts" v:lbl="Number of Ports" v:prompt="" v:type="0" v:format="" v:sortKey="Network"
							v:invis="false" v:ask="false" v:langID="1033" v:cal="0"/>
					<v:cp v:nameU="CommunityString" v:lbl="Community String" v:prompt="" v:type="0" v:format="" v:sortKey="Network"
							v:invis="false" v:ask="false" v:langID="1033" v:cal="0"/>
					<v:cp v:nameU="NetworkDescription" v:lbl="Network Description" v:prompt="" v:type="0" v:format=""
							v:sortKey="Network" v:invis="false" v:ask="false" v:langID="1033" v:cal="0"/>
					<v:cp v:nameU="MACAddress" v:lbl="MAC Address" v:prompt="" v:type="0" v:format="" v:sortKey="Network"
							v:invis="false" v:ask="false" v:langID="1033" v:cal="0"/>
					<v:cp v:nameU="ShapeClass" v:lbl="ShapeClass" v:prompt="" v:type="0" v:format="" v:sortKey="" v:invis="true"
							v:ask="false" v:langID="1033" v:cal="0" v:val="VT4(Equipment)"/>
					<v:cp v:nameU="ShapeType" v:lbl="ShapeType" v:prompt="" v:type="0" v:format="" v:sortKey="" v:invis="true"
							v:ask="false" v:langID="1033" v:cal="0" v:val="VT4(Device)"/>
					<v:cp v:nameU="SubShapeType" v:lbl="SubShapeType" v:prompt="" v:type="0" v:format="" v:sortKey=""
							v:invis="true" v:ask="false" v:langID="1033" v:cal="0" v:val="VT4(Router)"/>
				</v:custProps>
				<v:userDefs>
					<v:ud v:nameU="visVersion" v:prompt="" v:val="VT0(15):26"/>
					<v:ud v:nameU="ShapeClass" v:prompt="" v:val="VT0(5):26"/>
					<v:ud v:nameU="SolSH" v:prompt="" v:val="VT15({BF0433D9-CD73-4EB5-8390-8653BE590246}):41"/>
					<v:ud v:nameU="visLegendShape" v:prompt="" v:val="VT0(2):26"/>
					<v:ud v:nameU="visNavOrder" v:val="VT0(5000):26"/>
				</v:userDefs>
				<title>Router.13</title>
				<desc>R5:5.5.5.5</desc>
				<g id="shape14-50" v:mID="14" v:groupContext="shape" transform="translate(0,-0.658927)">
					<title>Sheet.14</title>
					<path d="M0 507.74 L0 598.55 A59.5102 13.446 -180 0 0 119.02 598.55 L119.02 507.74 A59.5102 13.446 0 0 1 0 507.74
								 ZM119.02 507.74 A59.5102 13.446 -180 1 0 0 507.74 A59.5102 13.446 -180 1 0 119.02 507.74 Z"
							class="st3"/>
				</g>
				<g id="shape15-52" v:mID="15" v:groupContext="shape" transform="translate(18.7846,-12.5871)">
					<title>Sheet.15</title>
					<path d="M44.09 600.01 L44.09 582.83 L37.18 582.83 L37.18 599.92 L29.1 591.75 L29.1 601.39 L40.66 612 L52.23
								 601.34 L52.23 591.79 L44.09 600.01 ZM64.26 582.38 C70.03 582.67 75.85 582 81.46 580.37 L81.46 573.46
								 C75.88 575.07 70.09 575.75 64.34 575.47 C67.1 572.92 69.85 570.14 72.59 567.14 C69.36 567.5 66.1
								 567.55 62.86 567.3 C59.3 570.88 55.76 574.09 52.29 576.94 C55.77 581.81 59.33 586.3 62.92 590.44
								 C66.13 590.68 69.35 590.63 72.55 590.28 C69.8 587.87 67.02 585.23 64.26 582.38 ZM17.2 575.54 C11.42
								 575.83 5.61 575.16 0 573.53 L0 580.44 C5.58 582.06 11.36 582.73 17.11 582.45 C14.36 585.28 11.6
								 587.89 8.86 590.28 C12.1 590.63 15.36 590.68 18.6 590.44 C22.16 586.31 25.7 581.81 29.16 576.95
								 C25.68 574.11 22.12 570.89 18.54 567.31 C15.33 567.55 12.11 567.5 8.9 567.15 C11.66 570.17 14.43
								 572.96 17.2 575.54 ZM37.3 554.14 L37.3 571.31 L44.22 571.31 L44.22 554.23 L52.29 562.4 L52.29 552.75
								 L40.73 542.15 L29.16 552.81 L29.16 562.36 L37.3 554.14 Z" class="st3"/>
				</g>
				<g id="shape13-54" v:mID="13" v:groupContext="groupContent">
					<v:textBlock v:margins="rect(4,4,4,4)"/>
					<v:textRect cx="59.5102" cy="626.802" width="97.56" height="29.6036"/>
					<text x="16.72" y="632.2" class="st4" v:langID="1033"><v:paragraph v:horizAlign="1"/><v:tabList/>R5:5.5.5.5</text>				</g>
			</g>
			<g id="shape28-56" v:mID="28" v:groupContext="shape" transform="translate(284.74,0)">
				<title>Sheet.28</title>
				<desc>R4:4.4.4.4</desc>
				<v:userDefs>
					<v:ud v:nameU="visNavOrder" v:val="VT0(13000):26"/>
				</v:userDefs>
				<v:textBlock v:margins="rect(4,4,4,4)"/>
				<v:textRect cx="125.633" cy="595.469" width="251.27" height="33.0612"/>
				<rect x="0" y="578.939" width="251.265" height="33.0612" class="st5"/>
				<text x="81.22" y="600.87" class="st4" v:langID="1033"><v:paragraph v:horizAlign="1"/><v:tabList/>R4:4.4.4.4</text>			</g>
		</g>
	</g>
</svg>
